<svg width="78" height="24" viewBox="0 0 78 24" fill="none" xmlns="http://www.w3.org/2000/svg">
<path d="M53.0252 14.5418C52.9571 16.7344 52.3709 18.2666 51.9439 19.3841L51.8882 19.5317C51.6513 20.1541 51.5081 20.6024 51.3754 21.0267C51.3657 21.0577 51.3701 21.0913 51.3869 21.1196C51.6813 21.6279 51.7317 22.268 51.4992 22.8303C51.1995 23.5518 50.5125 24 49.7045 24H3.32495C2.51688 24 1.82992 23.5509 1.53021 22.8303C1.29768 22.268 1.34896 21.6279 1.64249 21.1196C1.65929 21.0913 1.66371 21.0577 1.65398 21.0267C1.52137 20.6024 1.37725 20.1541 1.14119 19.5317L1.0855 19.3841C0.657586 18.2666 0.071423 16.7344 0.00423062 14.5418C-0.0603094 12.4783 0.624877 11.1689 1.28796 9.90289C1.58502 9.33707 1.89092 8.75179 2.11726 8.09313C2.4205 7.20725 2.42493 6.57246 2.42846 5.89965C2.43288 5.11103 2.4373 4.21631 2.93594 3.13151C4.23293 0.305018 6.92328 0 8.01869 0H45.0125C46.1088 0 48.7983 0.305018 50.0952 3.13151C50.593 4.2172 50.5983 5.11103 50.6027 5.89965C50.6063 6.57246 50.6107 7.20725 50.9139 8.09313C51.1403 8.75267 51.4471 9.33707 51.7432 9.90289C52.4054 11.1689 53.0915 12.4783 53.0269 14.5418H53.0252Z" fill="#B31917"/>
<path d="M77.9178 14.5418C77.8497 16.7344 77.2635 18.2666 76.8365 19.3841L76.7808 19.5317C76.5438 20.1541 76.4006 20.6024 76.268 21.0267C76.2583 21.0577 76.2627 21.0913 76.2795 21.1196C76.5739 21.6279 76.6243 22.268 76.3918 22.8303C76.0921 23.5518 75.4051 24 74.597 24H28.2175C27.4095 24 26.7225 23.5509 26.4228 22.8303C26.1903 22.268 26.2415 21.6279 26.5351 21.1196C26.5519 21.0913 26.5563 21.0577 26.5466 21.0267C26.4139 20.6024 26.2698 20.1541 26.0338 19.5317L25.9781 19.3841C25.5502 18.2666 24.964 16.7344 24.8968 14.5418C24.8323 12.4783 25.5175 11.1689 26.1805 9.90289C26.4776 9.33707 26.7835 8.75179 27.0098 8.09313C27.3131 7.20725 27.3175 6.57246 27.321 5.89965C27.3255 5.11103 27.3299 4.21631 27.8285 3.13151C29.1255 0.305018 31.8159 0 32.9113 0H69.9051C71.0014 0 73.6908 0.305018 74.9878 3.13151C75.4856 4.2172 75.4909 5.11103 75.4953 5.89965C75.4988 6.57246 75.5033 7.20725 75.8065 8.09313C76.0328 8.75267 76.3396 9.33707 76.6358 9.90289C77.298 11.1689 77.9841 12.4783 77.9195 14.5418H77.9178Z" fill="#B31917"/>
<path d="M41.7332 14.5843C40.5846 14.5843 39.6502 15.5167 39.6502 16.662C39.6502 17.5404 40.3662 18.2549 41.2468 18.2549C41.2537 18.2549 41.2601 18.2549 41.2671 18.2549C41.4743 18.2442 41.6393 18.0728 41.6393 17.863C41.6393 17.6531 41.4636 17.47 41.2468 17.47C40.7988 17.47 40.4357 17.1085 40.4357 16.6626C40.4357 16.3053 40.5809 15.9823 40.8159 15.7489C41.0508 15.5151 41.3755 15.3709 41.7338 15.3709C42.3158 15.3709 42.8434 15.6058 43.2247 15.986C43.6065 16.3657 43.8425 16.8906 43.8425 17.47C43.8425 18.4066 43.4612 19.2545 42.8445 19.8686C42.4045 20.307 41.8432 20.6263 41.2158 20.7726C40.9654 20.8314 40.7043 20.8618 40.4362 20.8618C39.5151 20.8618 36.4474 20.762 36.4474 15.8077C36.4474 13.157 37.5506 11.5529 38.7953 10.6628L39.0121 10.84C39.5194 11.2544 40.1911 11.491 40.7705 11.491C40.9931 11.491 41.203 11.4557 41.384 11.382C41.5747 11.3046 41.7322 11.1845 41.8486 11.036C41.965 10.887 42.0387 10.7092 42.06 10.5154C42.1028 10.1277 41.9276 9.75607 41.5907 9.52112C41.2879 9.30966 40.8548 9.21087 40.3946 9.22422C40.1788 9.2301 39.9578 9.26 39.741 9.31553C39.5402 9.36573 39.3426 9.43728 39.1578 9.52966L39.0041 9.60655C38.4258 8.52845 38.6078 6.8747 39.4163 5.91407C40.2701 4.89897 41.793 4.61917 42.7975 5.27169L42.704 5.42228C42.5951 5.59742 42.5107 5.79019 42.4509 5.9883C42.35 6.32203 42.3201 6.67179 42.3665 6.97883C42.3932 7.15718 42.4461 7.32111 42.5246 7.45995C42.7104 7.78675 43.034 7.98005 43.3929 7.98005C43.3993 7.98005 43.4057 7.98005 43.4126 7.98005C43.7795 7.9731 44.1036 7.76645 44.2798 7.42631C44.5559 6.89553 44.4448 6.023 44.0224 5.39771C44.0208 5.39504 44.0192 5.39237 44.0171 5.3897C44.0149 5.3865 44.0123 5.38276 44.0096 5.37956C43.9733 5.32616 43.9343 5.2749 43.8948 5.2247C44.1719 5.01805 44.518 4.92994 44.9692 5.08961C45.1737 5.16223 45.398 5.0549 45.4706 4.85092C45.5432 4.6464 45.4359 4.42213 45.2319 4.34951C44.7027 4.16208 43.9952 4.10975 43.3229 4.68164C43.2861 4.65548 43.2487 4.63038 43.2108 4.60635C42.7825 4.33242 42.2763 4.16956 41.7311 4.14072C40.6396 4.08252 39.522 4.56897 38.815 5.40946C38.1438 6.20723 37.7935 7.41349 37.9003 8.55728C37.9489 9.07578 38.0861 9.55102 38.3019 9.95898C38.3136 9.98141 38.3254 10.0038 38.3377 10.0252C38.2805 10.0658 38.2239 10.108 38.1684 10.1512C37.6125 10.5795 37.1325 11.1022 36.7517 11.6987C36.0276 12.8339 35.6608 14.2164 35.6608 15.8082C35.6608 18.1834 36.3245 19.8723 37.6323 20.8271C38.7558 21.6478 40.0197 21.6478 40.4357 21.6478C42.7467 21.6478 44.6269 19.7741 44.6269 17.4705C44.6269 15.8803 43.3288 14.5859 41.7332 14.5859V14.5843ZM41.2788 10.4278C41.2292 10.8721 40.1601 10.7637 39.5081 10.2308C40.2611 9.85379 41.3274 9.98354 41.2788 10.4278ZM43.3971 7.19349C43.0565 7.20043 43.0319 6.38131 43.3704 5.83504C43.7298 6.36742 43.7378 7.18708 43.3971 7.19349ZM43.4137 3.11494C43.2604 3.2682 43.0116 3.2682 42.8583 3.11494C42.7051 2.96169 42.7051 2.71285 42.8583 2.5596C43.0116 2.40635 43.2604 2.40635 43.4137 2.5596C43.5669 2.71285 43.5669 2.96169 43.4137 3.11494ZM41.5255 2.83727C41.3723 2.99052 41.1234 2.99052 40.9702 2.83727C40.8169 2.68402 40.8169 2.43518 40.9702 2.28193C41.1234 2.12868 41.3723 2.12868 41.5255 2.28193C41.6788 2.43518 41.6788 2.68402 41.5255 2.83727ZM29.8276 6.14582C29.8276 6.36262 29.6519 6.5383 29.4351 6.5383H27.1165V19.3101C27.1165 19.5269 26.9403 19.7031 26.7235 19.7031C26.5067 19.7031 26.3311 19.5269 26.3311 19.3101V6.5383H24.0125C23.7957 6.5383 23.62 6.36262 23.62 6.14582C23.62 5.92902 23.7957 5.75281 24.0125 5.75281H29.4351C29.6519 5.75281 29.8276 5.92902 29.8276 6.14582ZM24.3676 18.4007C24.1508 18.4007 23.9751 18.5764 23.9751 18.7932C23.9751 19.01 23.7994 19.1862 23.5827 19.1862C23.3659 19.1862 23.1902 19.01 23.1902 18.7932V17.494C23.1902 17.4908 23.1902 17.4881 23.1902 17.4849V8.76767C23.1902 8.76446 23.1902 8.7618 23.1902 8.75859V7.96242C23.1902 7.18548 22.9168 6.57194 22.4047 6.14849C21.875 5.71063 21.0895 5.47567 20.0867 5.47567C18.1654 5.47567 17.0419 6.33538 16.9853 7.84014C16.9842 7.85082 16.9842 7.8615 16.9842 7.87218C16.9832 7.90155 16.9832 7.93145 16.9832 7.96136C16.9832 8.17815 17.1588 8.35437 17.3756 8.35437C17.5924 8.35437 17.7681 8.17815 17.7681 7.96136C17.7681 7.53898 17.8135 6.26009 20.0867 6.26009C22.2525 6.26009 22.3961 7.4215 22.4047 7.89675V8.80131C22.3999 9.26107 22.2867 10.4593 20.0861 10.4593C18.1136 10.4593 16.9826 11.366 16.9826 12.9461V17.4844C16.9826 19.0644 18.1136 19.9711 20.0861 19.9711C21.1429 19.9711 21.9577 19.7111 22.4869 19.2268C22.4939 19.2438 22.5013 19.2609 22.5083 19.2775C22.6396 19.5685 22.8858 19.7965 23.1896 19.9038C23.2991 19.9423 23.4155 19.9653 23.5367 19.9695C23.5517 19.9706 23.5672 19.9706 23.5821 19.9706C23.5971 19.9706 23.6126 19.9706 23.6275 19.9695C24.2571 19.946 24.7596 19.4281 24.7596 18.7926C24.7596 18.6842 24.7158 18.586 24.6447 18.515C24.5737 18.4439 24.4755 18.4002 24.3671 18.4002L24.3676 18.4007ZM20.0861 19.1862C17.8135 19.1862 17.7676 17.9073 17.7676 17.4849V12.9466C17.7676 12.5237 17.8135 11.2453 20.0861 11.2453C21.0895 11.2453 21.8744 11.0099 22.4047 10.5715V17.5282C22.3999 17.9879 22.2867 19.1862 20.0861 19.1862ZM30.258 7.84068C30.258 7.84068 30.258 7.84121 30.258 7.84174H30.2553V19.3181C30.2553 19.5349 30.431 19.7111 30.6478 19.7111C30.8646 19.7111 31.0402 19.5349 31.0402 19.3181V14.0535C31.1497 14.092 31.2661 14.115 31.3873 14.1198C31.4023 14.1208 31.4178 14.1208 31.4327 14.1208C31.4477 14.1208 31.4632 14.1208 31.4781 14.1198C32.1077 14.0963 32.6102 13.5783 32.6102 12.9429C32.6102 12.7261 32.4345 12.5504 32.2177 12.5504C32.0009 12.5504 31.8252 12.7261 31.8252 12.9429C31.8252 13.1597 31.6495 13.3359 31.4327 13.3359C31.2159 13.3359 31.0402 13.1597 31.0402 12.9429V12.9007C31.0451 12.4409 31.1572 11.2421 33.3588 11.2421C35.3313 11.2421 36.4628 10.3354 36.4628 8.75539V7.96296C36.4628 7.18602 36.1894 6.57247 35.6773 6.14902C35.1476 5.71116 34.3622 5.47621 33.3593 5.47621C31.4381 5.47621 30.3146 6.33592 30.258 7.84068ZM35.6779 7.89728C35.6779 7.92077 35.6779 7.94213 35.6779 7.96242V8.75485C35.6779 9.17723 35.632 10.4561 33.3588 10.4561C32.3554 10.4561 31.57 10.6911 31.0402 11.1295V7.96189C31.0402 7.53951 31.0856 6.26063 33.3588 6.26063C35.5246 6.26063 35.6683 7.42204 35.6768 7.89728H35.6779ZM15.9456 6.12072C15.9456 6.11432 15.9446 6.10791 15.944 6.10097C15.944 6.09616 15.943 6.09082 15.9424 6.08601C15.9392 6.06519 15.935 6.0449 15.9286 6.02514C15.927 6.01927 15.9248 6.01393 15.9227 6.00805C15.9227 6.00699 15.9227 6.00645 15.9216 6.00538C15.9195 5.99951 15.9173 5.99417 15.9152 5.98883C15.9051 5.9648 15.8933 5.94237 15.8784 5.92101C15.8714 5.91087 15.8639 5.90126 15.8565 5.89165C15.8527 5.88737 15.849 5.8831 15.8447 5.8783C15.8324 5.86388 15.8186 5.85106 15.8036 5.83878C15.7983 5.83451 15.7935 5.83077 15.7887 5.82703C15.7764 5.81742 15.7641 5.80941 15.7502 5.8014C15.7192 5.78378 15.6867 5.77043 15.6541 5.76189C15.6461 5.75975 15.6375 5.75762 15.629 5.75601C15.6226 5.75495 15.6156 5.75334 15.6087 5.75228C15.6034 5.75121 15.5986 5.75121 15.5937 5.75067C15.5884 5.74961 15.5836 5.74961 15.5788 5.74961C15.5713 5.74961 15.5638 5.74854 15.5558 5.74854H15.5537C15.5457 5.74854 15.5371 5.74854 15.5291 5.74961C15.5211 5.74961 15.512 5.75067 15.504 5.75228C15.4816 5.75495 15.4592 5.75975 15.4373 5.76669H15.4362C15.4325 5.76776 15.4282 5.76883 15.425 5.77043C15.4191 5.77257 15.4127 5.7747 15.4069 5.77737C15.3988 5.78058 15.3919 5.78325 15.3844 5.78698C15.3689 5.79446 15.354 5.803 15.3396 5.81262C15.3337 5.81635 15.3273 5.82063 15.3219 5.82543C15.2792 5.8564 15.2424 5.89645 15.2146 5.94504L15.2093 5.95412L12.8432 10.0524L10.4761 5.95412L10.4707 5.94504C10.443 5.89645 10.4061 5.8564 10.3634 5.82543C10.3575 5.82116 10.3516 5.81689 10.3458 5.81262C10.3308 5.803 10.3164 5.79446 10.3009 5.78698C10.2934 5.78325 10.286 5.78058 10.2785 5.77737C10.2726 5.7747 10.2662 5.77257 10.2603 5.77043C10.2571 5.76883 10.2529 5.76723 10.2491 5.76669H10.2481C10.2262 5.75975 10.2037 5.75495 10.1813 5.75228C10.1733 5.75121 10.1642 5.75014 10.1562 5.74961C10.1482 5.74961 10.1397 5.74854 10.1316 5.74854H10.1295C10.1215 5.74854 10.114 5.74854 10.1065 5.74961C10.1012 5.74961 10.0964 5.74961 10.0916 5.75067C10.0868 5.75067 10.082 5.75174 10.0766 5.75228C10.0697 5.75334 10.0628 5.75441 10.0564 5.75601C10.0478 5.75708 10.0393 5.75922 10.0313 5.76189C9.99868 5.77043 9.96611 5.78378 9.93514 5.8014C9.92179 5.80941 9.90897 5.81742 9.89723 5.82703C9.89189 5.83077 9.88708 5.83451 9.88227 5.83878C9.86732 5.85106 9.85344 5.86388 9.84116 5.8783C9.83689 5.8831 9.83315 5.88737 9.82941 5.89165C9.8214 5.90126 9.81446 5.9114 9.80752 5.92101C9.79256 5.94237 9.78082 5.9648 9.77067 5.98883C9.76854 5.99417 9.7664 5.99951 9.76426 6.00538C9.76426 6.00645 9.7632 6.00699 9.7632 6.00805C9.76106 6.01393 9.75946 6.01927 9.75732 6.02514C9.75091 6.0449 9.74664 6.06572 9.74344 6.08601C9.74237 6.09135 9.74237 6.09669 9.74184 6.10097C9.74077 6.10791 9.74077 6.11432 9.74023 6.12072C9.74023 6.12767 9.74023 6.13407 9.74023 6.14101V19.3063C9.74023 19.5231 9.91591 19.6988 10.1327 19.6988C10.3495 19.6988 10.5252 19.5231 10.5252 19.3063V7.60573L12.3904 10.8368L11.6738 12.0762C11.4319 12.4938 11.4319 13.0112 11.6738 13.4288C12.0129 14.0172 12.5527 14.1053 12.8443 14.1053C13.0782 14.1053 13.6634 14.0397 14.0148 13.4288C14.2551 13.0112 14.2551 12.4938 14.0148 12.0778L13.2976 10.8368L15.1623 7.60626V19.3069C15.1623 19.5237 15.338 19.6993 15.5548 19.6993C15.7716 19.6993 15.9472 19.5237 15.9472 19.3069V6.14101C15.9472 6.13407 15.9472 6.12767 15.9472 6.12072H15.9456ZM13.3329 13.0374C13.1855 13.2932 12.9404 13.3209 12.8427 13.3209C12.7204 13.3209 12.4945 13.2841 12.3525 13.0374C12.251 12.8628 12.251 12.6454 12.3525 12.4708L12.8427 11.6229L13.3329 12.4714C13.4333 12.6454 13.4333 12.8622 13.3329 13.0374ZM52.0311 6.14101V19.3063C52.0311 19.5012 51.8896 19.6625 51.7043 19.6935V19.6988H46.216C45.9992 19.6988 45.8235 19.5231 45.8235 19.3063V6.14101C45.8235 5.92422 45.9992 5.74854 46.216 5.74854C46.4328 5.74854 46.6085 5.92422 46.6085 6.14101V18.9133H48.5346L48.5372 11.2299C48.5372 11.0131 48.7129 10.8374 48.9297 10.8374C49.1465 10.8374 49.3227 11.0131 49.3227 11.2299L49.3201 18.9133H51.2456V6.14101C51.2456 5.92422 51.4218 5.74854 51.6386 5.74854C51.8554 5.74854 52.0311 5.92422 52.0311 6.14101ZM67.5822 18.1823C67.3655 18.1823 67.1898 18.358 67.1898 18.5748C67.1898 18.7916 67.0141 18.9678 66.7973 18.9678C66.5805 18.9678 66.4048 18.7916 66.4048 18.5748V7.62281C66.4048 6.86296 66.1309 6.26703 65.6193 5.86334C65.1185 5.4682 64.389 5.25728 63.4652 5.25728C61.5974 5.25728 60.5257 6.11966 60.5257 7.62281H60.5278C60.5278 7.83908 60.7035 8.01475 60.9203 8.01475C61.1371 8.01475 61.3128 7.83854 61.3128 7.62174H61.3112C61.3112 7.2282 61.3555 6.04223 63.4652 6.04223C65.575 6.04223 65.6108 7.1214 65.6193 7.56247V8.69825C65.6145 9.1265 65.5061 10.2367 63.4652 10.2367C61.5974 10.2367 60.5257 11.099 60.5257 12.6022V17.3925C60.5283 18.892 61.5995 19.7522 63.4647 19.7522C64.4547 19.7522 65.221 19.5098 65.7229 19.058C65.8543 19.349 66.1004 19.5771 66.4043 19.6844C66.5137 19.7228 66.6302 19.7458 66.7514 19.7506C66.7663 19.7517 66.7818 19.7517 66.7968 19.7517C66.8117 19.7517 66.8272 19.7517 66.8422 19.7506C67.4717 19.7271 67.9742 19.2091 67.9742 18.5737C67.9742 18.4653 67.9304 18.3671 67.8594 18.296C67.7884 18.225 67.6901 18.1812 67.5817 18.1812L67.5822 18.1823ZM63.4652 18.9678C61.3603 18.9678 61.3112 17.7871 61.3112 17.3909V17.3872V12.6027C61.3112 12.2102 61.3539 11.0221 63.4652 11.0221C64.3896 11.0221 65.1185 10.8107 65.6193 10.4155V17.4294C65.6145 17.8576 65.5061 18.9678 63.4652 18.9678ZM58.7043 10.5549C58.5766 10.6606 58.4341 10.7546 58.2771 10.8363C58.4341 10.918 58.5766 11.012 58.7043 11.1172C59.2158 11.5406 59.4892 12.1536 59.4892 12.9301V19.3058C59.4892 19.5226 59.3135 19.6983 59.0967 19.6983C58.9883 19.6983 58.8901 19.6545 58.8191 19.5835C58.7481 19.5124 58.7043 19.4142 58.7043 19.3058V12.9301C58.7043 12.5071 58.6583 11.2288 56.3857 11.2288C54.2001 11.2288 54.0741 12.411 54.0672 12.8777V19.3058C54.0672 19.5226 53.8915 19.6983 53.6747 19.6983C53.4579 19.6983 53.2822 19.5226 53.2822 19.3058V12.9301C53.2822 12.9301 53.2822 12.9258 53.2822 12.9242V6.14101C53.2822 5.92422 53.4579 5.748 53.6747 5.748C53.8915 5.748 54.0672 5.92422 54.0672 6.14101V11.1172C54.5969 10.6788 55.3818 10.4438 56.3857 10.4438C58.6589 10.4438 58.7043 9.16548 58.7043 8.74257V6.14101C58.7043 5.92422 58.8799 5.748 59.0967 5.748C59.3135 5.748 59.4892 5.92422 59.4892 6.14101V8.74257C59.4892 9.51845 59.2158 10.132 58.7043 10.5549Z" fill="white"/>
</svg>
