<svg width="226" height="74" viewBox="0 0 226 74" fill="none" xmlns="http://www.w3.org/2000/svg">
<g clip-path="url(#clip0_6328_203979)">
<path d="M22.2545 23.8286C22.2545 28.1603 21.0782 35.2241 11.0565 35.2241C7.29267 35.2241 3.7169 33.8579 1.64622 30.7971C0.517218 29.291 0 26.8884 0 25.9473L6.82201 24.8166C6.82201 27.3125 7.528 29.0082 10.9623 29.0082C14.8676 29.0082 14.8676 25.9004 14.8676 23.4988V0.8007H22.2545V23.8286Z" fill="#F28414"/>
<path d="M57.2615 21.7089C57.2615 30.7974 51.8977 35.2241 42.9111 35.2241C33.8304 35.2241 28.6084 30.8913 28.6084 21.7089V0.80107H35.9949V21.7089C35.9949 25.382 36.9359 29.0082 42.9111 29.0082C48.1808 29.0082 49.8746 26.7482 49.8746 21.7089V0.80107H57.2615V21.7089Z" fill="#F28414"/>
<path d="M68.5558 24.4399C69.3087 28.8669 73.261 29.4792 75.9904 29.4792C78.5779 29.4792 82.5298 28.7257 82.5298 25.2877C82.5298 18.1296 62.5337 22.7453 62.5337 10.1718C62.5337 3.24922 69.0265 -0.000172831 75.096 -0.000172831C82.1067 -0.000172831 88.5519 3.06102 88.5519 10.8314L81.4008 9.79499C80.5071 5.88631 77.0721 5.74615 74.7664 5.74615C72.4142 5.74615 69.6856 6.73416 69.6856 9.55946C69.6856 12.0549 71.2852 12.6203 79.7069 14.6462C82.2002 15.2574 89.6809 16.8118 89.6809 24.4399C89.6809 30.6089 84.8827 35.2241 75.7077 35.2241C68.1797 35.2241 61.4043 31.551 61.4043 23.2633L68.5558 24.4399Z" fill="#F28414"/>
<path d="M102.575 7.01706H91.8945V0.848073H120.548V7.06402H109.962L109.915 36.5998L102.528 37.7764L102.575 7.01706Z" fill="#F28414"/>
<path d="M94.8755 41.1365C93.8541 41.212 92.8272 41.2232 91.7996 41.2185L84.751 63.2158H84.6568L77.6709 41.1405C76.844 41.1387 76.0221 41.1304 75.2003 41.0614C73.5003 41.1849 71.7884 41.1994 70.0801 41.1976L80.4696 73.1992H88.797L99.6503 40.4744C98.1427 40.9924 96.3633 41.0267 94.8755 41.1365Z" fill="#58A4B0"/>
<path d="M102.819 40.2052L110.206 39.5767V73.1992H102.819V40.2052Z" fill="#58A4B0"/>
<path d="M121.406 63.2157C122.158 67.6428 126.11 68.2551 128.839 68.2551C131.426 68.2551 135.379 67.5016 135.379 64.0636C135.379 56.9055 115.384 61.5211 115.384 48.9476C115.384 42.0251 121.875 38.7757 127.945 38.7757C134.956 38.7757 141.402 41.8369 141.402 49.6073L134.25 48.5709C133.356 44.6622 129.922 44.522 127.615 44.522C125.263 44.522 122.534 45.51 122.534 48.3353C122.534 50.8308 124.134 51.3962 132.556 53.422C135.049 54.0333 142.53 55.5877 142.53 63.2157C142.53 69.3847 137.731 74 128.557 74C121.029 74 114.254 70.3269 114.254 62.0392L121.406 63.2157Z" fill="#58A4B0"/>
<path d="M162.764 45.9339L157.119 58.9311H168.269L162.811 45.9339H162.764ZM143.709 73.1992L158.953 39.6236H166.388L181.396 73.1992H174.244L170.951 65.7583H153.966L150.438 73.1992H143.709Z" fill="#58A4B0"/>
<path d="M125.096 36.4995C118.639 37.5269 62.73 48.7359 37.3069 31.0667C36.758 32.0287 36.1704 32.9669 35.5488 33.8841C69.6563 49.2236 124.768 37.1577 125.259 37.4105C125.259 37.4105 125.836 36.3821 125.096 36.4995Z" fill="#F28414"/>
<path fill-rule="evenodd" clip-rule="evenodd" d="M184.834 22.7153C182.15 22.0376 178.94 22.0535 176.052 22.7124C176.052 22.7124 175.554 22.3273 175.425 21.8616C175.189 21.0091 177.693 20.9509 178.703 21.4939C179.042 21.676 179.246 22.0383 179.27 22.0777C179.339 22.0719 179.408 22.0661 179.479 22.0621C179.457 21.828 178.818 21.2056 178.482 21.0069C177.267 20.2877 175.652 19.8112 172.947 20.4409L130.918 31.5773C129.019 31.7966 127.614 31.4075 126.703 30.4076L124.459 27.3695C124.093 26.9621 123.694 26.8194 123.261 26.9426L121.742 27.4963C122.163 29.9915 122.401 32.1261 122.454 33.8991C122.376 35.6319 122.463 36.6517 121.072 37.2651L122.31 37.7239C123.285 37.4255 123.951 37.3843 124.518 37.3782L129.757 36.9277C131.401 36.8941 135.304 36.3707 135.834 36.301C138.443 36.0716 132.655 39.6233 132.655 39.6233L155.935 28.5664C158.045 27.4183 159.063 29.9062 157.077 30.6952L127.37 43.126C137.42 39.5869 150.178 35.3386 156.881 32.6784C167.505 30.6262 176.807 28.5808 180.164 27.6426C182.741 26.8194 184.143 26.1034 185.296 24.9095C186.887 23.2625 184.98 22.764 184.834 22.7153Z" fill="#F28414"/>
<path d="M186.729 0.260352H189.994L190.992 10.9548L196.626 0.260352H200.015L192.114 14.5196H188.434L186.729 0.260352Z" fill="#606166"/>
<path d="M211.946 0.260352L211.385 2.8839H204.046L203.297 6.20839H209.701L209.16 8.67172H202.757L201.468 14.5196H198.224L201.364 0.260352H211.946Z" fill="#606166"/>
<path d="M223.729 4.50609H220.652C220.597 3.70501 220.368 3.14425 219.966 2.82382C219.564 2.49003 218.913 2.32314 218.012 2.32314C217.236 2.32314 216.612 2.48336 216.141 2.80379C215.684 3.12422 215.455 3.55147 215.455 4.08552C215.455 4.21903 215.469 4.34587 215.496 4.46603C215.538 4.5862 215.593 4.69301 215.663 4.78647C215.746 4.87993 215.822 4.96671 215.891 5.04682C215.961 5.11358 216.058 5.18701 216.183 5.26712C216.321 5.33387 216.432 5.38728 216.515 5.42733C216.598 5.46739 216.723 5.51412 216.889 5.56752C217.07 5.62093 217.194 5.66098 217.264 5.68769C217.347 5.70104 217.478 5.73442 217.659 5.78782C217.839 5.82787 217.95 5.85458 217.991 5.86793C219.558 6.28182 220.625 6.65566 221.193 6.98944C222.357 7.67036 222.939 8.71845 222.939 10.1337C222.939 11.2018 222.621 12.103 221.983 12.8373C221.346 13.5583 220.569 14.0657 219.655 14.3594C218.754 14.6531 217.756 14.8 216.661 14.8C215.829 14.8 215.067 14.7132 214.374 14.5396C213.695 14.3794 213.071 14.1258 212.503 13.7786C211.934 13.4315 211.491 12.9442 211.172 12.3166C210.867 11.6891 210.715 10.9548 210.715 10.1137V9.77321H213.896V9.97348C213.896 11.6023 214.921 12.4168 216.973 12.4168C217.832 12.4168 218.518 12.2365 219.031 11.876C219.544 11.5156 219.8 11.0282 219.8 10.4141C219.8 10.1737 219.745 9.96013 219.634 9.77321C219.537 9.58629 219.426 9.43942 219.301 9.33261C219.19 9.21245 219.01 9.09896 218.761 8.99215C218.525 8.88534 218.338 8.81191 218.199 8.77185C218.061 8.7318 217.846 8.67172 217.555 8.59161C215.988 8.16437 214.928 7.80388 214.374 7.51015C213.029 6.81588 212.357 5.77447 212.357 4.38593C212.357 3.06414 212.884 2.00271 213.937 1.20162C214.991 0.400541 216.384 0 218.116 0C219.932 0 221.318 0.373838 222.274 1.12152C223.244 1.85584 223.729 2.9106 223.729 4.28579V4.50609Z" fill="#606166"/>
</g>
<defs>
<clipPath id="clip0_6328_203979">
<rect width="225.7" height="74" fill="white"/>
</clipPath>
</defs>
</svg>
